<svg
    xmlns="http://www.w3.org/2000/svg"
    viewBox="0 0 1028 377"
    id="vector">
    <defs>
        <clipPath id="clip_path">
            <path d="M 1028 377 L 838 377 L 838 243 L 1028 243 Z"/>
        </clipPath>
        <clipPath id="clip_path_1">
            <path d="M 1028 377 L 838 377 L 838 243 L 1028 243 Z"/>
        </clipPath>
        <clipPath id="clip_path_2">
            <path d="M 1028 377 L 838 377 L 838 243 L 1028 243 Z"/>
        </clipPath>
        <clipPath id="clip_path_6">
            <path d="M 894 377 L 676 377 L 676 0 L 894 0 Z"/>
        </clipPath>
        <clipPath id="clip_path_7">
            <path d="M 894 377 L 676 377 L 676 0 L 894 0 Z"/>
        </clipPath>
        <clipPath id="clip_path_9">
            <path d="M 731 377 L 187 377 L 187 243 L 731 243 Z"/>
        </clipPath>
        <clipPath id="clip_path_10">
            <path d="M 731 377 L 187 377 L 187 243 L 731 243 Z"/>
        </clipPath>
        <clipPath id="clip_path_11">
            <path d="M 731 377 L 187 377 L 187 243 L 731 243 Z"/>
        </clipPath>
        <clipPath id="clip_path_12">
            <path d="M 731 377 L 187 377 L 187 243 L 731 243 Z"/>
        </clipPath>
        <clipPath id="clip_path_13">
            <path d="M 731 377 L 187 377 L 187 243 L 731 243 Z"/>
        </clipPath>
        <clipPath id="clip_path_14">
            <path d="M 731 377 L 187 377 L 187 243 L 731 243 Z"/>
        </clipPath>
        <clipPath id="clip_path_15">
            <path d="M 731 377 L 187 377 L 187 243 L 731 243 Z"/>
        </clipPath>
        <clipPath id="clip_path_21">
            <path d="M 1028 377 L 0 377 L 0 80 L 1028 80 Z"/>
        </clipPath>
        <clipPath id="clip_path_22">
            <path d="M 1028 377 L 0 377 L 0 80 L 1028 80 Z"/>
        </clipPath>
        <clipPath id="clip_path_23">
            <path d="M 1028 377 L 0 377 L 0 80 L 1028 80 Z"/>
        </clipPath>
        <clipPath id="clip_path_24">
            <path d="M 1028 377 L 0 377 L 0 80 L 1028 80 Z"/>
        </clipPath>
        <clipPath id="clip_path_25">
            <path d="M 1028 377 L 0 377 L 0 80 L 1028 80 Z"/>
        </clipPath>
        <clipPath id="clip_path_26">
            <path d="M 1028 377 L 0 377 L 0 80 L 1028 80 Z"/>
        </clipPath>
    </defs>
    <g id="group">
        <path
            id="path"
            clip-path="url(#clip_path)"
            d="M 1013.61 378.08 C 1017.6 378.08 1021.16 376.22 1023.47 373.33 L 1028.91 373.33 L 1028.91 406 L 1061.65 406 L 1061.65 400.57 C 1058.75 398.26 1056.89 394.72 1056.89 390.73 C 1056.89 383.78 1062.54 378.15 1069.5 378.15 C 1076.47 378.15 1082.11 383.79 1082.11 390.73 C 1082.11 394.63 1080.33 398.11 1077.54 400.42 L 1077.55 406 L 1110.09 406 L 1110.09 373.33 L 1115.53 373.33 C 1117.84 376.22 1121.4 378.08 1125.39 378.08 C 1132.35 378.08 1138 372.45 1138 365.5 C 1138 358.55 1132.35 352.92 1125.39 352.92 C 1121.48 352.92 1117.99 354.69 1115.68 357.47 L 1110.09 357.47 L 1110.09 325 L 1077.63 325 L 1077.63 330.64 C 1080.42 332.95 1082.2 336.43 1082.2 340.33 C 1082.2 347.28 1076.55 352.92 1069.59 352.92 C 1062.62 352.92 1056.98 347.29 1056.98 340.33 C 1056.98 336.34 1058.84 332.8 1061.74 330.49 L 1061.74 325 L 1028.91 325 L 1028.91 357.47 L 1023.32 357.47 C 1021 354.69 1017.52 352.92 1013.61 352.92 C 1006.65 352.92 1001 358.55 1001 365.5 C 1001 372.45 1006.65 378.08 1013.61 378.08 M 1043.39 270.91 C 1039.39 270.91 1035.84 272.77 1033.53 275.66 L 1028.09 275.67 L 1028.09 243 L 995.35 243 L 995.35 248.43 C 998.25 250.74 1000.11 254.28 1000.11 258.27 C 1000.11 265.22 994.46 270.85 987.5 270.85 C 980.53 270.85 974.89 265.21 974.89 258.27 C 974.89 254.37 976.67 250.89 979.46 248.58 L 979.45 243 L 946.91 243 L 946.91 275.67 L 941.47 275.67 C 939.16 272.78 935.6 270.92 931.61 270.92 C 924.64 270.92 919 276.56 919 283.51 C 919 290.46 924.65 296.09 931.61 296.09 C 935.52 296.09 939.01 294.32 941.32 291.54 L 946.91 291.54 L 946.91 324 L 979.37 324 L 979.37 318.36 C 976.58 316.05 974.8 312.57 974.8 308.67 C 974.8 301.72 980.45 296.08 987.41 296.08 C 994.38 296.08 1000.02 301.72 1000.02 308.67 C 1000.02 312.66 998.16 316.2 995.26 318.51 L 995.26 324 L 1028.09 324 L 1028.09 291.53 L 1033.68 291.53 C 1035.99 294.31 1039.48 296.08 1043.39 296.08 C 1050.36 296.08 1056 290.45 1056 283.5 C 1056 276.55 1050.35 270.91 1043.39 270.91"
            fill="#f8c642"
            fill-opacity="0.187"
            stroke-opacity="0.187"
            fill-rule="evenodd"/>
    </g>
    <g id="group_1">
        <path
            id="path_1"
            clip-path="url(#clip_path_1)"
            d="M 1000.08 421.39 C 1000.08 417.39 998.22 413.84 995.33 411.53 L 995.33 406.09 L 1028 406.09 L 1028 373.35 L 1022.57 373.35 C 1020.26 376.25 1016.72 378.11 1012.73 378.11 C 1005.78 378.11 1000.15 372.46 1000.15 365.5 C 1000.15 358.53 1005.78 352.89 1012.73 352.89 C 1016.63 352.89 1020.11 354.67 1022.42 357.46 L 1028 357.45 L 1028 324.91 L 995.33 324.91 L 995.33 319.47 C 998.22 317.16 1000.08 313.6 1000.08 309.61 C 1000.08 302.65 994.45 297 987.5 297 C 980.55 297 974.92 302.65 974.92 309.61 C 974.92 313.52 976.69 317.01 979.47 319.32 L 979.47 324.91 L 947 324.91 L 947 357.36 L 952.64 357.36 C 954.95 354.57 958.43 352.8 962.33 352.8 C 969.28 352.8 974.92 358.45 974.92 365.41 C 974.92 372.38 969.28 378.02 962.33 378.02 C 958.34 378.02 954.8 376.16 952.49 373.26 L 947 373.26 L 947 406.09 L 979.47 406.09 L 979.47 411.68 C 976.69 413.99 974.92 417.48 974.92 421.39 C 974.92 428.35 980.55 434 987.5 434 C 994.45 434 1000.08 428.35 1000.08 421.39"
            fill="#eb902d"
            fill-opacity="0.187"
            stroke-opacity="0.187"
            fill-rule="evenodd"/>
    </g>
    <g id="group_2">
        <path
            id="path_2"
            clip-path="url(#clip_path_2)"
            d="M 850.61 378.08 C 854.6 378.08 858.16 376.22 860.47 373.33 L 865.91 373.33 L 865.91 406 L 898.65 406 L 898.65 400.57 C 895.75 398.26 893.89 394.72 893.89 390.73 C 893.89 383.78 899.54 378.15 906.5 378.15 C 913.47 378.15 919.11 383.79 919.11 390.73 C 919.11 394.63 917.33 398.11 914.54 400.42 L 914.55 406 L 947.09 406 L 947.09 373.33 L 952.53 373.33 C 954.84 376.22 958.4 378.08 962.39 378.08 C 969.35 378.08 975 372.45 975 365.5 C 975 358.55 969.35 352.92 962.39 352.92 C 958.48 352.92 954.99 354.69 952.68 357.47 L 947.09 357.47 L 947.09 325 L 914.63 325 L 914.63 330.64 C 917.42 332.95 919.2 336.43 919.2 340.33 C 919.2 347.28 913.55 352.92 906.59 352.92 C 899.63 352.92 893.98 347.29 893.98 340.33 C 893.98 336.34 895.84 332.8 898.74 330.49 L 898.74 325 L 865.91 325 L 865.91 357.47 L 860.32 357.47 C 858.01 354.69 854.52 352.92 850.61 352.92 C 843.65 352.92 838 358.55 838 365.5 C 838 372.45 843.65 378.08 850.61 378.08"
            fill="#e36538"
            fill-opacity="0.187"
            stroke-opacity="0.187"
            fill-rule="evenodd"/>
    </g>
    <path
        id="path_3"
        d="M 850.61 133.74 C 854.6 133.74 858.16 131.86 860.47 128.93 L 865.91 128.93 L 865.91 162 L 898.65 162 L 898.65 156.51 C 895.75 154.17 893.89 150.58 893.89 146.55 C 893.89 139.51 899.54 133.81 906.5 133.81 C 913.47 133.81 919.11 139.51 919.11 146.55 C 919.11 150.5 917.33 154.02 914.54 156.36 L 914.55 162 L 947.09 162 L 947.09 128.93 L 952.53 128.93 C 954.84 131.86 958.4 133.74 962.39 133.74 C 969.35 133.74 975 128.04 975 121 C 975 113.97 969.35 108.26 962.39 108.26 C 958.48 108.26 954.99 110.06 952.68 112.87 L 947.09 112.87 L 947.09 80 L 914.63 80 L 914.63 85.71 C 917.42 88.05 919.2 91.57 919.2 95.52 C 919.2 102.55 913.55 108.26 906.59 108.26 C 899.63 108.26 893.98 102.56 893.98 95.52 C 893.98 91.48 895.84 87.89 898.74 85.56 L 898.74 80 L 865.91 80 L 865.91 112.87 L 860.32 112.87 C 858.01 110.05 854.52 108.26 850.61 108.26 C 843.64 108.26 838 113.96 838 121 C 838 128.03 843.65 133.74 850.61 133.74"
        fill="#e36538"
        fill-opacity="0.187"
        stroke-opacity="0.187"
        fill-rule="evenodd"/>
    <path
        id="path_4"
        d="M 893.92 227.7 C 893.92 231.73 895.78 235.31 898.67 237.63 L 898.67 243.11 L 866 243.12 L 866 276.1 L 871.43 276.1 C 873.74 273.18 877.28 271.3 881.27 271.3 C 888.22 271.3 893.85 276.99 893.85 284 C 893.85 291.01 888.22 296.7 881.27 296.7 C 877.37 296.7 873.89 294.91 871.58 292.1 L 866 292.11 L 866 324.89 L 898.67 324.89 L 898.67 330.36 C 895.78 332.69 893.92 336.27 893.92 340.29 C 893.92 347.31 899.55 352.99 906.51 352.99 C 913.46 352.99 919.09 347.3 919.09 340.29 C 919.09 336.36 917.32 332.84 914.53 330.51 L 914.53 324.88 L 947 324.89 L 947 292.2 L 941.36 292.2 C 939.05 295.01 935.57 296.8 931.67 296.8 C 924.72 296.8 919.09 291.11 919.09 284.1 C 919.09 277.08 924.72 271.4 931.68 271.4 C 935.67 271.4 939.21 273.28 941.52 276.2 L 947 276.18 L 947 243.11 L 914.53 243.11 L 914.53 237.48 C 917.31 235.15 919.08 231.63 919.08 227.7 C 919.08 220.68 913.44 215 906.5 215 C 899.55 215 893.91 220.69 893.91 227.7"
        fill="#eb902d"
        fill-opacity="0.187"
        stroke-opacity="0.187"
        fill-rule="evenodd"/>
    <path
        id="path_5"
        d="M 881.39 271.26 C 877.4 271.26 873.84 273.14 871.53 276.07 L 866.09 276.07 L 866.09 243 L 833.35 243 L 833.35 248.49 C 836.25 250.82 838.11 254.42 838.11 258.45 C 838.11 265.49 832.46 271.19 825.5 271.19 C 818.53 271.19 812.89 265.49 812.89 258.45 C 812.89 254.5 814.67 250.98 817.46 248.64 L 817.45 243 L 784.91 243 L 784.91 276.07 L 779.47 276.07 C 777.16 273.14 773.6 271.26 769.61 271.26 C 762.64 271.26 757 276.96 757 284 C 757 291.04 762.65 296.74 769.61 296.74 C 773.52 296.74 777.01 294.95 779.32 292.13 L 784.91 292.13 L 784.91 325 L 817.37 325 L 817.37 319.29 C 814.58 316.95 812.8 313.43 812.8 309.48 C 812.8 302.44 818.45 296.74 825.41 296.74 C 832.38 296.74 838.02 302.44 838.02 309.48 C 838.02 313.52 836.16 317.11 833.26 319.44 L 833.26 325 L 866.09 325 L 866.09 292.13 L 871.68 292.13 C 873.99 294.95 877.48 296.74 881.39 296.74 C 888.36 296.74 894 291.04 894 284 C 894 276.97 888.35 271.26 881.39 271.26"
        fill="#e36538"
        fill-opacity="0.187"
        stroke-opacity="0.187"
        fill-rule="evenodd"/>
    <g id="group_3">
        <path
            id="path_6"
            clip-path="url(#clip_path_6)"
            d="M 838.08 421.39 C 838.08 417.39 836.22 413.84 833.33 411.53 L 833.33 406.09 L 866 406.09 L 866 373.35 L 860.57 373.35 C 858.26 376.25 854.72 378.11 850.73 378.11 C 843.78 378.11 838.15 372.46 838.15 365.5 C 838.15 358.53 843.78 352.89 850.73 352.89 C 854.63 352.89 858.11 354.67 860.42 357.46 L 866 357.45 L 866 324.91 L 833.33 324.91 L 833.33 319.47 C 836.22 317.16 838.08 313.6 838.08 309.61 C 838.08 302.65 832.45 297 825.5 297 C 818.55 297 812.92 302.65 812.92 309.61 C 812.92 313.52 814.69 317.01 817.48 319.32 L 817.48 324.91 L 785 324.91 L 785 357.36 L 790.64 357.36 C 792.95 354.57 796.43 352.8 800.33 352.8 C 807.28 352.8 812.91 358.45 812.91 365.41 C 812.91 372.38 807.28 378.02 800.32 378.02 C 796.33 378.02 792.79 376.16 790.48 373.26 L 785 373.26 L 785 406.09 L 817.47 406.09 L 817.47 411.68 C 814.69 413.99 812.92 417.48 812.92 421.39 C 812.91 428.35 818.55 434 825.5 434 C 832.45 434 838.09 428.35 838.09 421.39"
            fill="#f8c642"
            fill-opacity="0.187"
            stroke-opacity="0.187"
            fill-rule="evenodd"/>
    </g>
    <g id="group_4">
        <path
            id="path_7"
            clip-path="url(#clip_path_7)"
            d="M 688.61 378.08 C 692.6 378.08 696.16 376.22 698.47 373.33 L 703.91 373.33 L 703.91 406 L 736.65 406 L 736.65 400.57 C 733.75 398.26 731.89 394.72 731.89 390.73 C 731.89 383.78 737.54 378.15 744.5 378.15 C 751.47 378.15 757.11 383.79 757.11 390.73 C 757.11 394.63 755.33 398.11 752.54 400.42 L 752.55 406 L 785.09 406 L 785.09 373.33 L 790.53 373.33 C 792.84 376.22 796.4 378.08 800.39 378.08 C 807.35 378.08 813 372.45 813 365.5 C 813 358.55 807.35 352.92 800.39 352.92 C 796.48 352.92 792.99 354.69 790.68 357.47 L 785.09 357.47 L 785.09 325 L 752.63 325 L 752.63 330.64 C 755.42 332.95 757.2 336.43 757.2 340.33 C 757.2 347.28 751.55 352.92 744.59 352.92 C 737.62 352.92 731.98 347.29 731.98 340.33 C 731.98 336.34 733.84 332.8 736.74 330.49 L 736.74 325 L 703.91 325 L 703.91 357.47 L 698.32 357.47 C 696.01 354.69 692.52 352.92 688.61 352.92 C 681.65 352.92 676 358.55 676 365.5 C 676 372.45 681.65 378.08 688.61 378.08"
            fill="#eb902d"
            fill-opacity="0.187"
            stroke-opacity="0.187"
            fill-rule="evenodd"/>
    </g>
    <path
        id="path_8"
        d="M 731.26 227.7 C 731.26 231.73 733.14 235.31 736.07 237.63 L 736.07 243.11 L 703 243.12 L 703 276.1 L 708.49 276.1 C 710.83 273.18 714.42 271.3 718.45 271.3 C 725.49 271.3 731.19 276.99 731.19 284 C 731.19 291.01 725.49 296.7 718.45 296.7 C 714.5 296.7 710.98 294.91 708.64 292.1 L 703 292.11 L 703 324.89 L 736.07 324.89 L 736.07 330.36 C 733.14 332.69 731.26 336.27 731.26 340.29 C 731.26 347.31 736.96 353 744 353 C 751.04 353 756.74 347.31 756.74 340.3 C 756.74 336.37 754.95 332.85 752.13 330.52 L 752.13 324.89 L 785 324.89 L 785 292.2 L 779.29 292.2 C 776.95 295.01 773.43 296.8 769.48 296.8 C 762.45 296.8 756.74 291.11 756.74 284.1 C 756.74 277.08 762.44 271.4 769.48 271.4 C 773.52 271.4 777.11 273.28 779.44 276.2 L 785 276.18 L 785 243.11 L 752.13 243.11 L 752.13 237.48 C 754.95 235.15 756.74 231.63 756.74 227.7 C 756.74 220.68 751.04 215 744 215 C 736.97 215 731.26 220.69 731.26 227.7"
        fill="#f8c642"
        fill-opacity="0.187"
        stroke-opacity="0.187"
        fill-rule="evenodd"/>
    <g id="group_5">
        <path
            id="path_9"
            clip-path="url(#clip_path_9)"
            d="M 718.39 270.91 C 714.4 270.91 710.84 272.77 708.53 275.66 L 703.09 275.66 L 703.09 243 L 670.35 243 L 670.35 248.43 C 673.25 250.74 675.11 254.28 675.11 258.27 C 675.11 265.22 669.46 270.85 662.5 270.85 C 655.53 270.85 649.89 265.21 649.89 258.27 C 649.89 254.37 651.67 250.89 654.46 248.58 L 654.45 243 L 621.91 243 L 621.91 275.67 L 616.47 275.67 C 614.16 272.78 610.6 270.92 606.61 270.92 C 599.64 270.92 594 276.56 594 283.51 C 594 290.46 599.65 296.09 606.61 296.09 C 610.52 296.09 614.01 294.32 616.32 291.54 L 621.91 291.54 L 621.91 324 L 654.37 324 L 654.37 318.36 C 651.58 316.05 649.8 312.57 649.8 308.67 C 649.8 301.72 655.45 296.08 662.41 296.08 C 669.38 296.08 675.02 301.72 675.02 308.67 C 675.02 312.66 673.16 316.2 670.26 318.51 L 670.26 324 L 703.09 324 L 703.09 291.53 L 708.68 291.53 C 710.99 294.31 714.48 296.08 718.39 296.08 C 725.35 296.08 731 290.45 731 283.5 C 731 276.55 725.35 270.91 718.39 270.91"
            fill="#eb902d"
            fill-opacity="0.38"
            stroke-opacity="0.38"
            fill-rule="evenodd"/>
    </g>
    <g id="group_6">
        <path
            id="path_10"
            clip-path="url(#clip_path_10)"
            d="M 675.08 421.39 C 675.08 417.39 673.22 413.84 670.33 411.53 L 670.33 406.09 L 703 406.09 L 703 373.35 L 697.57 373.35 C 695.26 376.25 691.72 378.11 687.73 378.11 C 680.78 378.11 675.15 372.46 675.15 365.5 C 675.15 358.53 680.78 352.89 687.73 352.89 C 691.63 352.89 695.11 354.67 697.42 357.46 L 703 357.45 L 703 324.91 L 670.33 324.91 L 670.33 319.47 C 673.22 317.16 675.08 313.6 675.08 309.61 C 675.08 302.65 669.45 297 662.5 297 C 655.55 297 649.92 302.65 649.92 309.61 C 649.92 313.52 651.69 317.01 654.47 319.32 L 654.47 324.91 L 622 324.91 L 622 357.36 L 627.64 357.36 C 629.95 354.57 633.43 352.8 637.33 352.8 C 644.28 352.8 649.92 358.45 649.92 365.41 C 649.92 372.38 644.28 378.02 637.33 378.02 C 633.34 378.02 629.8 376.16 627.49 373.26 L 622 373.26 L 622 406.09 L 654.47 406.09 L 654.47 411.68 C 651.69 413.99 649.92 417.48 649.92 421.39 C 649.92 428.35 655.55 434 662.5 434 C 669.45 434 675.08 428.35 675.08 421.39"
            fill="#e36538"
            fill-opacity="0.38"
            stroke-opacity="0.38"
            fill-rule="evenodd"/>
    </g>
    <g id="group_7">
        <path
            id="path_11"
            clip-path="url(#clip_path_11)"
            d="M 524.61 378.08 C 528.61 378.08 532.16 376.22 534.47 373.33 L 539.91 373.33 L 539.91 406 L 572.65 406 L 572.65 400.57 C 569.75 398.26 567.89 394.72 567.89 390.73 C 567.89 383.78 573.54 378.15 580.5 378.15 C 587.47 378.15 593.11 383.79 593.11 390.73 C 593.11 394.63 591.33 398.11 588.54 400.42 L 588.55 406 L 621.09 406 L 621.09 373.33 L 626.53 373.33 C 628.84 376.22 632.4 378.08 636.39 378.08 C 643.35 378.08 649 372.45 649 365.5 C 649 358.55 643.35 352.92 636.39 352.92 C 632.48 352.92 628.99 354.69 626.68 357.47 L 621.09 357.47 L 621.09 325 L 588.63 325 L 588.63 330.64 C 591.42 332.95 593.2 336.43 593.2 340.33 C 593.2 347.28 587.55 352.92 580.59 352.92 C 573.62 352.92 567.98 347.29 567.98 340.33 C 567.98 336.34 569.84 332.8 572.74 330.49 L 572.74 325 L 539.91 325 L 539.91 357.47 L 534.32 357.47 C 532.01 354.69 528.52 352.92 524.61 352.92 C 517.65 352.92 512 358.55 512 365.5 C 512 372.45 517.65 378.08 524.61 378.08"
            fill="#f8c642"
            fill-opacity="0.38"
            stroke-opacity="0.38"
            fill-rule="evenodd"/>
    </g>
    <g id="group_8">
        <path
            id="path_12"
            clip-path="url(#clip_path_12)"
            d="M 512.09 421.39 C 512.09 417.39 510.23 413.84 507.34 411.53 L 507.34 406.09 L 540 406.09 L 540 373.35 L 534.57 373.35 C 532.26 376.25 528.72 378.11 524.73 378.11 C 517.78 378.11 512.15 372.46 512.15 365.5 C 512.15 358.53 517.78 352.89 524.73 352.89 C 528.63 352.89 532.11 354.67 534.42 357.46 L 540 357.45 L 540 324.91 L 507.33 324.91 L 507.33 319.47 C 510.22 317.16 512.08 313.6 512.08 309.61 C 512.08 302.64 506.44 297 499.5 297 C 492.55 297 486.91 302.65 486.91 309.61 C 486.91 313.52 488.68 317.01 491.46 319.32 L 491.46 324.91 L 459 324.91 L 459 357.36 L 464.64 357.36 C 466.95 354.57 470.43 352.8 474.33 352.8 C 481.28 352.8 486.92 358.45 486.92 365.41 C 486.92 372.38 481.28 378.02 474.34 378.02 C 470.35 378.02 466.81 376.16 464.5 373.26 L 459 373.26 L 459 406.09 L 491.47 406.09 L 491.47 411.68 C 488.69 413.99 486.92 417.48 486.92 421.39 C 486.92 428.36 492.55 434 499.51 434 C 506.46 434 512.09 428.35 512.09 421.39"
            fill="#eb902d"
            fill-opacity="0.38"
            stroke-opacity="0.38"
            fill-rule="evenodd"/>
    </g>
    <g id="group_9">
        <path
            id="path_13"
            clip-path="url(#clip_path_13)"
            d="M 362.61 378.08 C 366.6 378.08 370.16 376.22 372.47 373.33 L 377.91 373.33 L 377.91 406 L 410.65 406 L 410.65 400.57 C 407.75 398.26 405.89 394.72 405.89 390.73 C 405.89 383.78 411.54 378.15 418.5 378.15 C 425.47 378.15 431.11 383.79 431.11 390.73 C 431.11 394.63 429.33 398.11 426.54 400.42 L 426.55 406 L 459.09 406 L 459.09 373.33 L 464.53 373.33 C 466.84 376.22 470.4 378.08 474.39 378.08 C 481.35 378.08 487 372.45 487 365.5 C 487 358.55 481.35 352.92 474.39 352.92 C 470.48 352.92 466.99 354.69 464.68 357.47 L 459.09 357.47 L 459.09 325 L 426.63 325 L 426.63 330.64 C 429.42 332.95 431.2 336.43 431.2 340.33 C 431.2 347.28 425.55 352.92 418.59 352.92 C 411.63 352.92 405.98 347.29 405.98 340.33 C 405.98 336.34 407.84 332.8 410.74 330.49 L 410.74 325 L 377.91 325 L 377.91 357.47 L 372.32 357.47 C 370.01 354.69 366.52 352.92 362.61 352.92 C 355.65 352.92 350 358.55 350 365.5 C 350 372.45 355.65 378.08 362.61 378.08 M 393.39 270.91 C 389.4 270.91 385.84 272.77 383.53 275.66 L 378.09 275.66 L 378.09 243 L 345.35 243 L 345.35 248.43 C 348.25 250.74 350.11 254.28 350.11 258.27 C 350.11 265.22 344.46 270.85 337.5 270.85 C 330.54 270.85 324.89 265.21 324.89 258.27 C 324.89 254.37 326.67 250.89 329.46 248.58 L 329.45 243 L 296.91 243 L 296.91 275.67 L 291.47 275.67 C 289.16 272.78 285.6 270.92 281.61 270.92 C 274.64 270.92 269 276.56 269 283.51 C 269 290.46 274.65 296.09 281.61 296.09 C 285.51 296.09 289.01 294.32 291.32 291.54 L 296.91 291.54 L 296.91 324 L 329.37 324 L 329.37 318.36 C 326.58 316.05 324.8 312.57 324.8 308.67 C 324.8 301.72 330.45 296.08 337.41 296.08 C 344.37 296.08 350.02 301.72 350.02 308.67 C 350.02 312.66 348.16 316.2 345.26 318.51 L 345.26 324 L 378.09 324 L 378.09 291.53 L 383.68 291.53 C 386 294.31 389.48 296.08 393.39 296.08 C 400.36 296.08 406 290.45 406 283.5 C 406 276.55 400.35 270.91 393.39 270.91"
            fill="#e36538"
            fill-opacity="0.38"
            stroke-opacity="0.38"
            fill-rule="evenodd"/>
    </g>
    <g id="group_10">
        <path
            id="path_14"
            clip-path="url(#clip_path_14)"
            d="M 350.08 421.39 C 350.08 417.39 348.22 413.84 345.33 411.53 L 345.33 406.09 L 378 406.09 L 378 373.35 L 372.57 373.35 C 370.26 376.25 366.72 378.11 362.73 378.11 C 355.78 378.11 350.14 372.46 350.14 365.5 C 350.14 358.53 355.77 352.89 362.73 352.89 C 366.63 352.89 370.11 354.67 372.42 357.46 L 378 357.45 L 378 324.91 L 345.33 324.91 L 345.33 319.47 C 348.22 317.16 350.08 313.6 350.08 309.61 C 350.08 302.64 344.45 297 337.49 297 C 330.54 297 324.91 302.65 324.91 309.61 C 324.91 313.52 326.68 317.01 329.47 319.32 L 329.47 324.91 L 297 324.91 L 297 357.36 L 302.64 357.36 C 304.95 354.57 308.43 352.8 312.33 352.8 C 319.28 352.8 324.91 358.45 324.91 365.41 C 324.91 372.38 319.28 378.02 312.32 378.02 C 308.33 378.02 304.79 376.16 302.48 373.26 L 297 373.26 L 297 406.09 L 329.47 406.09 L 329.47 411.68 C 326.69 413.99 324.92 417.48 324.92 421.39 C 324.92 428.36 330.56 434 337.5 434 C 344.45 434 350.09 428.35 350.09 421.39"
            fill="#f8c642"
            fill-opacity="0.38"
            stroke-opacity="0.38"
            fill-rule="evenodd"/>
    </g>
    <g id="group_11">
        <path
            id="path_15"
            clip-path="url(#clip_path_15)"
            d="M 199.61 378.08 C 203.6 378.08 207.16 376.22 209.47 373.33 L 214.91 373.33 L 214.91 406 L 247.65 406 L 247.65 400.57 C 244.75 398.26 242.89 394.72 242.89 390.73 C 242.89 383.78 248.54 378.15 255.5 378.15 C 262.46 378.15 268.11 383.79 268.11 390.73 C 268.11 394.63 266.33 398.11 263.54 400.42 L 263.55 406 L 296.09 406 L 296.09 373.33 L 301.53 373.33 C 303.84 376.22 307.4 378.08 311.39 378.08 C 318.35 378.08 324 372.45 324 365.5 C 324 358.55 318.35 352.92 311.39 352.92 C 307.48 352.92 303.99 354.69 301.68 357.47 L 296.09 357.47 L 296.09 325 L 263.64 325 L 263.64 330.64 C 266.43 332.95 268.2 336.43 268.2 340.33 C 268.2 347.28 262.55 352.92 255.59 352.92 C 248.62 352.92 242.98 347.29 242.98 340.33 C 242.98 336.34 244.84 332.8 247.74 330.49 L 247.74 325 L 214.91 325 L 214.91 357.47 L 209.32 357.47 C 207.01 354.69 203.52 352.92 199.61 352.92 C 192.65 352.92 187 358.55 187 365.5 C 187 372.45 192.65 378.08 199.61 378.08"
            fill="#eb902d"
            fill-opacity="0.38"
            stroke-opacity="0.38"
            fill-rule="evenodd"/>
    </g>
    <path
        id="path_16"
        d="M 199.71 215.08 C 203.74 215.08 207.32 213.22 209.64 210.33 L 215.12 210.33 L 215.11 243 L 248.09 243 L 248.09 237.57 C 245.17 235.26 243.29 231.72 243.29 227.73 C 243.29 220.78 248.98 215.15 255.99 215.15 C 263 215.15 268.69 220.78 268.69 227.73 C 268.69 231.63 266.9 235.11 264.09 237.42 L 264.1 243 L 296.88 243 L 296.88 210.33 L 302.36 210.33 C 304.69 213.22 308.27 215.08 312.29 215.08 C 319.31 215.08 324.99 209.45 324.99 202.49 C 324.99 195.54 319.3 189.91 312.29 189.91 C 308.36 189.91 304.84 191.68 302.51 194.47 L 296.88 194.47 L 296.89 162 L 264.2 162 L 264.2 167.64 C 267.01 169.95 268.8 173.43 268.8 177.33 C 268.8 184.28 263.11 189.91 256.1 189.91 C 249.08 189.91 243.4 184.28 243.4 177.32 C 243.4 173.33 245.28 169.79 248.2 167.48 L 248.18 162 L 215.11 162 L 215.11 194.47 L 209.48 194.47 C 207.15 191.69 203.63 189.92 199.7 189.92 C 192.68 189.92 187 195.56 187 202.5 C 187 209.45 192.69 215.09 199.7 215.09"
        fill="#e36538"
        fill-opacity="0.187"
        stroke-opacity="0.187"
        fill-rule="evenodd"/>
    <path
        id="path_17"
        d="M 243.26 227.7 C 243.26 231.73 245.14 235.31 248.07 237.63 L 248.07 243.11 L 215 243.12 L 215 276.1 L 220.49 276.1 C 222.83 273.18 226.42 271.3 230.45 271.3 C 237.48 271.3 243.19 276.99 243.19 284 C 243.19 291.01 237.49 296.7 230.45 296.7 C 226.5 296.7 222.98 294.91 220.64 292.1 L 215 292.11 L 215 324.89 L 248.07 324.89 L 248.07 330.36 C 245.14 332.69 243.26 336.27 243.26 340.29 C 243.26 347.31 248.96 352.99 256 352.99 C 263.04 352.99 268.74 347.3 268.74 340.29 C 268.74 336.36 266.94 332.84 264.13 330.51 L 264.13 324.88 L 297 324.89 L 297 292.2 L 291.29 292.2 C 288.95 295.01 285.43 296.8 281.48 296.8 C 274.44 296.8 268.74 291.11 268.74 284.1 C 268.74 277.08 274.44 271.4 281.48 271.4 C 285.51 271.4 289.11 273.28 291.44 276.2 L 297 276.18 L 297 243.11 L 264.13 243.11 L 264.13 237.48 C 266.94 235.15 268.74 231.63 268.74 227.7 C 268.74 220.68 263.04 215 256 215 C 248.96 215 243.26 220.69 243.26 227.7"
        fill="#f8c642"
        fill-opacity="0.187"
        stroke-opacity="0.187"
        fill-rule="evenodd"/>
    <path
        id="path_18"
        d="M 80.26 227.71 C 80.26 231.74 82.14 235.32 85.07 237.64 L 85.07 243.12 L 52 243.12 L 52 276.1 L 57.49 276.1 C 59.82 273.18 63.42 271.3 67.45 271.3 C 74.49 271.3 80.19 276.99 80.19 284 C 80.19 291.01 74.49 296.7 67.45 296.7 C 63.5 296.7 59.98 294.91 57.64 292.1 L 52 292.11 L 52 324.89 L 85.07 324.89 L 85.07 330.37 C 82.14 332.7 80.26 336.28 80.26 340.3 C 80.26 347.31 85.97 353 93 353 C 100.04 353 105.74 347.31 105.74 340.3 C 105.74 336.37 103.95 332.85 101.13 330.52 L 101.13 324.89 L 134 324.89 L 134 292.2 L 128.29 292.2 C 125.95 295.01 122.43 296.8 118.48 296.8 C 111.44 296.8 105.74 291.11 105.74 284.1 C 105.74 277.08 111.44 271.4 118.48 271.4 C 122.51 271.4 126.11 273.28 128.44 276.2 L 134 276.18 L 134 243.11 L 101.13 243.11 L 101.13 237.48 C 103.95 235.15 105.74 231.63 105.74 227.7 C 105.74 220.68 100.04 215 93 215 C 85.97 215 80.26 220.69 80.26 227.7"
        fill="#e36538"
        fill-opacity="0.187"
        stroke-opacity="0.187"
        fill-rule="evenodd"/>
    <path
        id="path_19"
        d="M 405.92 227.7 C 405.92 231.73 407.78 235.31 410.67 237.63 L 410.67 243.11 L 378 243.12 L 378 276.1 L 383.42 276.1 C 385.73 273.18 389.27 271.3 393.26 271.3 C 400.21 271.3 405.85 276.99 405.85 284 C 405.85 291.01 400.21 296.7 393.27 296.7 C 389.37 296.7 385.89 294.91 383.58 292.1 L 378 292.11 L 378 324.89 L 410.67 324.89 L 410.67 330.36 C 407.78 332.69 405.92 336.27 405.92 340.29 C 405.92 347.31 411.55 352.99 418.5 352.99 C 425.45 352.99 431.08 347.3 431.08 340.29 C 431.08 336.36 429.31 332.84 426.53 330.51 L 426.53 324.88 L 459 324.89 L 459 292.2 L 453.36 292.2 C 451.05 295.01 447.57 296.8 443.67 296.8 C 436.72 296.8 431.08 291.11 431.08 284.1 C 431.08 277.08 436.71 271.4 443.67 271.4 C 447.66 271.4 451.2 273.28 453.51 276.2 L 459 276.18 L 459 243.11 L 426.53 243.11 L 426.53 237.48 C 429.31 235.15 431.08 231.63 431.08 227.7 C 431.08 220.68 425.45 215 418.5 215 C 411.55 215 405.92 220.69 405.92 227.7"
        fill="#f8c642"
        fill-opacity="0.187"
        stroke-opacity="0.187"
        fill-rule="evenodd"/>
    <path
        id="path_20"
        d="M 230.39 271.26 C 226.4 271.26 222.84 273.14 220.53 276.07 L 215.09 276.07 L 215.09 243 L 182.35 243 L 182.35 248.49 C 185.25 250.82 187.11 254.42 187.11 258.45 C 187.11 265.49 181.46 271.19 174.5 271.19 C 167.53 271.19 161.89 265.49 161.89 258.45 C 161.89 254.5 163.67 250.98 166.46 248.64 L 166.45 243 L 133.91 243 L 133.91 276.07 L 128.47 276.07 C 126.16 273.14 122.6 271.26 118.61 271.26 C 111.64 271.26 106 276.96 106 284 C 106 291.04 111.65 296.74 118.61 296.74 C 122.52 296.74 126.01 294.95 128.32 292.13 L 133.91 292.13 L 133.91 325 L 166.37 325 L 166.37 319.29 C 163.58 316.95 161.8 313.43 161.8 309.48 C 161.8 302.44 167.45 296.74 174.41 296.74 C 181.38 296.74 187.02 302.44 187.02 309.48 C 187.02 313.52 185.16 317.11 182.26 319.44 L 182.26 325 L 215.09 325 L 215.09 292.13 L 220.68 292.13 C 223 294.95 226.48 296.74 230.39 296.74 C 237.36 296.74 243 291.04 243 284 C 243 276.97 237.35 271.26 230.39 271.26"
        fill="#eb902d"
        fill-opacity="0.187"
        stroke-opacity="0.187"
        fill-rule="evenodd"/>
    <g id="group_12">
        <path
            id="path_21"
            clip-path="url(#clip_path_21)"
            d="M 230.39 107.92 C 226.4 107.92 222.84 109.78 220.53 112.67 L 215.09 112.67 L 215.09 80 L 182.35 80 L 182.35 85.43 C 185.25 87.74 187.11 91.28 187.11 95.27 C 187.11 102.22 181.46 107.86 174.5 107.86 C 167.53 107.86 161.89 102.22 161.89 95.27 C 161.89 91.37 163.67 87.89 166.46 85.58 L 166.45 80 L 133.91 80 L 133.91 112.67 L 128.47 112.67 C 126.16 109.78 122.6 107.92 118.61 107.92 C 111.64 107.92 106 113.56 106 120.51 C 106 127.46 111.65 133.09 118.61 133.09 C 122.52 133.09 126.01 131.32 128.32 128.53 L 133.91 128.53 L 133.91 161 L 166.37 161 L 166.37 155.36 C 163.58 153.05 161.8 149.57 161.8 145.67 C 161.8 138.72 167.45 133.09 174.41 133.09 C 181.38 133.09 187.02 138.73 187.02 145.68 C 187.02 149.67 185.16 153.21 182.26 155.52 L 182.26 161 L 215.09 161 L 215.09 128.53 L 220.68 128.53 C 223 131.31 226.48 133.08 230.39 133.08 C 237.36 133.08 243 127.44 243 120.5 C 243 113.55 237.35 107.91 230.39 107.91"
            fill="#eb902d"
            fill-opacity="0.328"
            stroke-opacity="0.328"
            fill-rule="evenodd"/>
    </g>
    <g id="group_13">
        <path
            id="path_22"
            clip-path="url(#clip_path_22)"
            d="M 187.09 421.39 C 187.09 417.39 185.23 413.84 182.34 411.53 L 182.34 406.09 L 215 406.09 L 215 373.35 L 209.57 373.35 C 207.26 376.25 203.72 378.11 199.73 378.11 C 192.78 378.11 187.15 372.46 187.15 365.5 C 187.15 358.53 192.78 352.89 199.73 352.89 C 203.63 352.89 207.11 354.67 209.42 357.46 L 215 357.45 L 215 324.91 L 182.33 324.91 L 182.33 319.47 C 185.22 317.16 187.08 313.6 187.08 309.61 C 187.08 302.64 181.44 297 174.5 297 C 167.55 297 161.91 302.65 161.91 309.61 C 161.91 313.52 163.68 317.01 166.46 319.32 L 166.46 324.91 L 134 324.91 L 134 357.36 L 139.64 357.36 C 141.95 354.57 145.43 352.8 149.33 352.8 C 156.28 352.8 161.91 358.45 161.91 365.41 C 161.91 372.38 156.27 378.02 149.33 378.02 C 145.34 378.02 141.8 376.16 139.49 373.26 L 134 373.26 L 134 406.09 L 166.47 406.09 L 166.47 411.68 C 163.69 413.99 161.92 417.48 161.92 421.39 C 161.92 428.36 167.55 434 174.51 434 C 181.46 434 187.09 428.35 187.09 421.39"
            fill="#e36538"
            fill-opacity="0.328"
            stroke-opacity="0.328"
            fill-rule="evenodd"/>
    </g>
    <g id="group_14">
        <path
            id="path_23"
            clip-path="url(#clip_path_23)"
            d="M 37.61 378.08 C 41.6 378.08 45.16 376.22 47.47 373.33 L 52.91 373.33 L 52.91 406 L 85.65 406 L 85.65 400.57 C 82.75 398.26 80.89 394.72 80.89 390.73 C 80.89 383.78 86.54 378.15 93.5 378.15 C 100.47 378.15 106.11 383.79 106.11 390.73 C 106.11 394.63 104.33 398.11 101.54 400.42 L 101.55 406 L 134.09 406 L 134.09 373.33 L 139.53 373.33 C 141.84 376.22 145.4 378.08 149.39 378.08 C 156.35 378.08 162 372.45 162 365.5 C 162 358.55 156.35 352.92 149.39 352.92 C 145.48 352.92 141.99 354.69 139.68 357.47 L 134.09 357.47 L 134.09 325 L 101.63 325 L 101.63 330.64 C 104.42 332.95 106.2 336.43 106.2 340.33 C 106.2 347.28 100.55 352.92 93.59 352.92 C 86.63 352.92 80.98 347.29 80.98 340.33 C 80.98 336.34 82.84 332.8 85.74 330.49 L 85.74 325 L 52.91 325 L 52.91 357.47 L 47.32 357.47 C 45.01 354.69 41.52 352.92 37.61 352.92 C 30.64 352.92 25 358.56 25 365.5 C 25 372.45 30.65 378.08 37.61 378.08 M 37.61 215.08 C 41.6 215.08 45.16 213.22 47.47 210.33 L 52.91 210.33 L 52.91 243 L 85.65 243 L 85.65 237.57 C 82.75 235.26 80.89 231.72 80.89 227.73 C 80.89 220.78 86.54 215.15 93.5 215.15 C 100.47 215.15 106.11 220.78 106.11 227.73 C 106.11 231.63 104.33 235.11 101.54 237.42 L 101.55 243 L 134.09 243 L 134.09 210.33 L 139.53 210.33 C 141.84 213.22 145.4 215.08 149.39 215.08 C 156.36 215.08 162 209.45 162 202.49 C 162 195.54 156.35 189.91 149.39 189.91 C 145.48 189.91 141.99 191.68 139.68 194.47 L 134.09 194.47 L 134.09 162 L 101.63 162 L 101.63 167.64 C 104.42 169.95 106.2 173.43 106.2 177.33 C 106.2 184.28 100.55 189.91 93.59 189.91 C 86.63 189.91 80.98 184.28 80.98 177.32 C 80.98 173.33 82.84 169.79 85.74 167.48 L 85.74 162 L 52.91 162 L 52.91 194.47 L 47.32 194.47 C 45.01 191.69 41.52 189.92 37.61 189.92 C 30.64 189.92 25 195.56 25 202.5 C 25 209.45 30.65 215.09 37.61 215.09"
            fill="#f8c642"
            fill-opacity="0.328"
            stroke-opacity="0.328"
            fill-rule="evenodd"/>
    </g>
    <g id="group_15">
        <path
            id="path_24"
            clip-path="url(#clip_path_24)"
            d="M 25.08 421.39 C 25.08 417.39 23.22 413.84 20.33 411.53 L 20.33 406.09 L 53 406.09 L 53 373.35 L 47.57 373.35 C 45.26 376.25 41.72 378.11 37.73 378.11 C 30.78 378.11 25.15 372.46 25.15 365.5 C 25.15 358.53 30.78 352.89 37.73 352.89 C 41.63 352.89 45.11 354.67 47.42 357.46 L 53 357.45 L 53 324.91 L 20.33 324.91 L 20.33 319.47 C 23.22 317.16 25.08 313.6 25.08 309.61 C 25.08 302.64 19.45 297 12.5 297 C 5.55 297 -0.08 302.65 -0.08 309.61 C -0.08 313.52 1.69 317.01 4.47 319.32 L 4.47 324.91 L -28 324.91 L -28 357.36 L -22.36 357.36 C -20.05 354.57 -16.57 352.8 -12.67 352.8 C -5.72 352.8 -0.08 358.45 -0.08 365.41 C -0.08 372.38 -5.71 378.02 -12.67 378.02 C -16.66 378.02 -20.2 376.16 -22.51 373.26 L -28 373.26 L -28 406.09 L 4.47 406.09 L 4.47 411.68 C 1.69 413.99 -0.08 417.48 -0.08 421.39 C -0.08 428.36 5.55 434 12.5 434 C 19.45 434 25.08 428.35 25.08 421.39"
            fill="#e36538"
            fill-opacity="0.328"
            stroke-opacity="0.328"
            fill-rule="evenodd"/>
    </g>
    <g id="group_16">
        <path
            id="path_25"
            clip-path="url(#clip_path_25)"
            d="M 838.08 258.39 C 838.08 254.39 836.22 250.84 833.33 248.53 L 833.33 243.09 L 866 243.09 L 866 210.35 L 860.57 210.35 C 858.26 213.25 854.72 215.11 850.73 215.11 C 843.78 215.11 838.15 209.46 838.15 202.5 C 838.15 195.53 843.78 189.89 850.73 189.89 C 854.63 189.89 858.11 191.67 860.42 194.46 L 866 194.45 L 866 161.91 L 833.33 161.91 L 833.33 156.47 C 836.22 154.16 838.08 150.6 838.08 146.61 C 838.08 139.64 832.45 134 825.49 134 C 818.54 134 812.91 139.65 812.91 146.61 C 812.91 150.52 814.68 154.01 817.47 156.32 L 817.47 161.91 L 785 161.91 L 785 194.37 L 790.64 194.37 C 792.95 191.58 796.43 189.8 800.33 189.8 C 807.28 189.8 812.91 195.45 812.91 202.41 C 812.91 209.37 807.28 215.02 800.32 215.02 C 796.33 215.02 792.79 213.16 790.48 210.26 L 785 210.26 L 785 243.09 L 817.47 243.09 L 817.47 248.68 C 814.69 250.99 812.92 254.48 812.92 258.39 C 812.92 265.36 818.56 271 825.5 271 C 832.45 271 838.09 265.35 838.09 258.39"
            fill="#eb902d"
            fill-opacity="0.328"
            stroke-opacity="0.328"
            fill-rule="evenodd"/>
    </g>
    <g id="group_17">
        <path
            id="path_26"
            clip-path="url(#clip_path_26)"
            d="M 1000.08 258.39 C 1000.08 254.39 998.22 250.84 995.33 248.53 L 995.33 243.09 L 1028 243.09 L 1028 210.35 L 1022.57 210.35 C 1020.26 213.25 1016.72 215.11 1012.73 215.11 C 1005.78 215.11 1000.15 209.46 1000.15 202.5 C 1000.15 195.53 1005.79 189.89 1012.73 189.89 C 1016.63 189.89 1020.11 191.67 1022.42 194.46 L 1028 194.45 L 1028 161.91 L 995.33 161.91 L 995.33 156.47 C 998.22 154.16 1000.08 150.6 1000.08 146.61 C 1000.08 139.65 994.45 134 987.5 134 C 980.55 134 974.92 139.65 974.92 146.61 C 974.92 150.52 976.69 154.01 979.47 156.32 L 979.47 161.91 L 947 161.91 L 947 194.37 L 952.64 194.37 C 954.95 191.58 958.43 189.8 962.33 189.8 C 969.28 189.8 974.92 195.45 974.92 202.41 C 974.92 209.37 969.28 215.02 962.33 215.02 C 958.34 215.02 954.8 213.16 952.49 210.26 L 947 210.26 L 947 243.09 L 979.47 243.09 L 979.47 248.68 C 976.69 250.99 974.92 254.48 974.92 258.39 C 974.92 265.35 980.55 271 987.5 271 C 994.45 271 1000.08 265.35 1000.08 258.39"
            fill="#e36538"
            fill-opacity="0.328"
            stroke-opacity="0.328"
            fill-rule="evenodd"/>
    </g>
    <path
        id="path_27"
        d="M 687.61 215.74 C 691.61 215.74 695.16 213.86 697.47 210.93 L 702.91 210.93 L 702.91 244 L 735.65 244 L 735.65 238.51 C 732.75 236.18 730.89 232.58 730.89 228.55 C 730.89 221.51 736.54 215.81 743.5 215.81 C 750.47 215.81 756.11 221.51 756.11 228.55 C 756.11 232.5 754.33 236.02 751.54 238.36 L 751.55 244 L 784.09 244 L 784.09 210.93 L 789.53 210.93 C 791.84 213.86 795.4 215.74 799.39 215.74 C 806.36 215.74 812 210.04 812 203 C 812 195.96 806.35 190.26 799.39 190.26 C 795.48 190.26 791.99 192.05 789.68 194.87 L 784.09 194.87 L 784.09 162 L 751.63 162 L 751.63 167.71 C 754.42 170.05 756.2 173.57 756.2 177.52 C 756.2 184.56 750.55 190.26 743.59 190.26 C 736.62 190.26 730.98 184.56 730.98 177.52 C 730.98 173.48 732.84 169.89 735.74 167.56 L 735.74 162 L 702.91 162 L 702.91 194.87 L 697.32 194.87 C 695.01 192.05 691.52 190.26 687.61 190.26 C 680.64 190.26 675 195.96 675 203 C 675 210.03 680.65 215.74 687.61 215.74"
        fill="#e36538"
        fill-opacity="0.187"
        stroke-opacity="0.187"
        fill-rule="evenodd"/>
    <path
        id="path_28"
        d="M 350.08 259.3 C 350.08 255.27 348.22 251.69 345.33 249.37 L 345.33 243.89 L 378 243.88 L 378 210.9 L 372.57 210.9 C 370.26 213.82 366.72 215.7 362.73 215.7 C 355.78 215.7 350.14 210.01 350.14 203 C 350.14 195.99 355.77 190.3 362.73 190.3 C 366.63 190.3 370.11 192.09 372.42 194.9 L 378 194.9 L 378 162.12 L 345.33 162.12 L 345.33 156.64 C 348.22 154.31 350.08 150.73 350.08 146.71 C 350.08 139.69 344.45 134.01 337.49 134.01 C 330.54 134.01 324.91 139.7 324.91 146.71 C 324.91 150.64 326.68 154.16 329.47 156.49 L 329.47 162.12 L 297 162.11 L 297 194.8 L 302.64 194.8 C 304.95 191.99 308.43 190.2 312.33 190.2 C 319.28 190.2 324.91 195.89 324.91 202.9 C 324.91 209.92 319.28 215.6 312.32 215.6 C 308.33 215.6 304.79 213.72 302.48 210.8 L 297 210.82 L 297 243.89 L 329.47 243.89 L 329.47 249.52 C 326.69 251.85 324.92 255.37 324.92 259.3 C 324.92 266.32 330.56 272 337.5 272 C 344.45 272 350.09 266.31 350.09 259.3 M 501.46 249.3 C 504.05 250.27 507.14 250.04 509.85 248.91 L 513.38 250.23 L 499.68 269.31 L 520.92 277.25 L 523.2 274.08 C 522.29 272.03 522.57 269.51 524.24 267.18 C 527.15 263.12 533.18 261.2 537.7 262.88 C 542.22 264.57 543.52 269.23 540.6 273.29 C 538.97 275.57 536.35 277.17 533.57 277.84 L 531.23 281.1 L 552.35 289 L 566.05 269.92 L 569.58 271.24 C 569.87 273.49 571.39 275.44 573.99 276.41 C 578.51 278.1 584.54 276.18 587.45 272.12 C 590.36 268.06 589.06 263.4 584.54 261.71 C 582.01 260.76 579 260.95 576.33 262.02 L 572.7 260.66 L 586.32 241.69 L 565.26 233.82 L 562.89 237.12 C 563.73 239.14 563.42 241.61 561.79 243.89 C 558.88 247.95 552.85 249.87 548.33 248.19 C 543.81 246.5 542.51 241.84 545.42 237.78 C 547.09 235.45 549.79 233.83 552.64 233.19 L 554.94 229.98 L 533.65 222 L 520.03 240.97 L 516.4 239.62 C 516.07 237.43 514.54 235.55 512.01 234.61 C 507.49 232.92 501.46 234.84 498.55 238.9 C 495.64 242.96 496.93 247.62 501.45 249.31"
        fill="#eb902d"
        fill-opacity="0.187"
        stroke-opacity="0.187"
        fill-rule="evenodd"/>
    <path
        id="path_29"
        d="M 531.57 144.44 C 533.22 146.08 535.63 146.6 538.05 146.06 L 540.39 148.35 L 524 165.48 L 538.09 180.96 L 540.95 177.97 C 540.84 175.28 541.85 172.44 543.94 170.26 C 547.58 166.46 553.19 166.03 556.55 169.37 C 559.98 172.78 559.75 178.82 555.97 182.77 C 553.85 184.99 551.08 186.05 548.48 185.91 L 545.47 189.06 L 561.79 207 L 580.43 187.51 L 583.51 190.52 C 583.16 193.57 584.13 196.72 586.46 199.04 C 590.59 203.15 597.39 203.03 601.55 198.68 C 605.71 194.33 605.51 187.55 601.2 183.62 C 598.82 181.46 595.7 180.63 592.73 181.05 L 589.48 178.04 L 608 158.68 L 589.3 143.3 L 586.25 146.49 C 586.51 149.07 585.58 151.88 583.46 154.1 C 579.67 158.06 573.64 158.57 570.06 155.32 C 566.55 152.13 566.72 146.52 570.35 142.71 C 572.44 140.53 575.24 139.38 577.93 139.37 L 580.83 136.34 L 564.63 123 L 548.35 140.03 L 545.88 137.75 C 546.25 135.37 545.6 133.07 543.92 131.54 C 540.96 128.85 535.89 129.54 532.54 133.04 C 529.19 136.54 528.74 141.62 531.57 144.44"
        fill="#e36538"
        fill-opacity="0.187"
        stroke-opacity="0.187"
        fill-rule="evenodd"/>
    <path
        id="path_30"
        d="M 451.18 222.91 C 453.2 221.89 454.54 220.04 454.97 217.99 L 457.81 216.53 L 466.44 233 L 485.13 224.55 L 483.61 221.66 C 481.24 221.24 479.15 219.88 478.05 217.77 C 476.13 214.1 477.87 209.44 482.04 207.33 C 486.32 205.17 491.49 206.49 493.51 210.33 C 494.64 212.48 494.5 214.94 493.39 217.04 L 494.99 220.1 L 517.04 210.14 L 507.08 191.13 L 510.93 189.15 C 513.48 190 516.65 189.79 519.61 188.29 C 524.88 185.63 527.44 179.95 525.2 175.68 C 522.96 171.41 516.86 170.34 511.7 173.21 C 508.87 174.79 506.92 177.23 506.15 179.77 L 502.24 181.91 L 492.34 163.02 L 471.78 175.69 L 473.4 178.78 C 475.75 179.04 477.84 180.31 478.97 182.47 C 480.98 186.31 479.14 191.36 474.96 193.69 C 470.87 195.97 466.07 194.79 464.15 191.12 C 463.04 189.01 463.11 186.51 464.1 184.3 L 462.57 181.37 L 445.05 192.17 L 453.63 208.54 L 450.76 210.11 C 448.86 209.37 446.65 209.46 444.72 210.54 C 441.33 212.43 440.06 216.65 441.82 219.99 C 443.57 223.34 447.75 224.67 451.21 222.91"
        fill="#f8c642"
        fill-opacity="0.187"
        stroke-opacity="0.187"
        fill-rule="evenodd"/>
</svg>
