<svg
    xmlns="http://www.w3.org/2000/svg"
    viewBox="0 0 130 167"
    id="vector">
    <path
        id="path"
        d="M 1.473 66.036 C 1.951 66.372 4.008 60.668 4.571 60.336 C 5.675 61.617 5.906 64.44 6.533 66.126 C 7.353 68.334 8.366 70.474 9.553 72.518 C 12.433 77.475 16.721 80.549 20.228 84.803 C 22.015 86.989 23.706 89.206 25.358 91.491 C 28.805 96.261 32.254 101.052 35.389 106.024 C 36.958 108.511 37.922 111.724 38.499 115.064 C 37 114.837 36.022 114.759 35.727 114.874 C 30.947 116.762 29.837 131.121 27.868 135.324 C 22.858 146.024 17.348 156.004 13.343 167 L 122.285 167 C 118.542 161.39 114.408 156.03 109.772 151.146 C 116.002 151.323 120.516 151.605 120.516 151.605 C 110.262 143.273 106.046 131.209 97.335 128.739 C 96.027 128.369 91.359 127.174 85.136 125.631 C 85.577 124.092 86.318 122.742 87.543 122.089 C 89.661 120.959 92.573 121.037 94.913 120.895 C 98.258 120.691 101.989 120.925 105.126 119.587 C 108.902 117.975 110.31 113.302 109.063 109.672 C 108.481 107.979 110.808 108.543 112.359 107.415 C 113.909 106.286 113.328 103.465 113.134 101.321 C 112.94 99.178 116.43 99.513 117.594 97.444 C 118.757 95.374 116.624 93.304 116.043 91.612 C 115.461 89.919 122.472 86.721 122.44 83.335 C 122.394 78.411 117.067 78.115 114.645 72.472 C 112.591 67.686 117.472 60.962 118.918 56.539 C 119.097 55.991 119.26 55.44 119.415 54.889 C 124.938 51.539 124.865 47.141 124.939 40.792 C 125.794 41.749 126.809 44.072 126.82 45.339 C 126.831 46.605 128.112 48.132 129.174 47.396 C 129.602 47.098 129.746 46.55 129.845 46.046 C 130.96 40.386 125.69 23.732 125.502 22.792 C 125.181 21.185 124.562 19.875 123.729 18.781 C 121.166 15.413 116.574 14.081 112.369 12.401 C 100.189 7.536 91.093 4.718 78.185 2.171 C 65.176 -0.396 51.36 -1.254 38.563 2.785 C 22.288 7.922 7.521 21.213 2.135 37.125 C -0.77 45.706 -0.144 55.345 0.731 64.221 C 0.797 64.89 0.912 65.641 1.473 66.036"
        fill="#4f5e7a"/>
</svg>
